<svg width="426" height="258" viewBox="0 0 426 258" fill="none" xmlns="http://www.w3.org/2000/svg">
<g id="teaCup">
<g id="plate">
<path d="M83 170L319.5 165C372.215 164.042 401.586 179.925 407.5 193.746C413.5 203 410 207.5 407.5 210C388.265 229.235 368 235.5 314 249.5C260 263.5 141.5 253.5 107 249.5C72.5 245.5 11.2435 229 3.50001 214.5C-2.69475 202.9 6.08116 193.667 11.2435 190.5C24.4805 175.547 62.0213 170.534 83 170Z" fill="#B8CCE4"/>
<path d="M11.2435 190.5C24.4805 175.547 62.0213 170.534 83 170L319.5 165C372.215 164.042 401.586 179.925 407.5 193.746M11.2435 190.5C7.96995 194.198 6.18278 198.504 6.50001 203.5C8.10001 228.7 121.833 244.667 178.5 249.5C247 249.5 388.7 240.3 407.5 203.5C408.991 200.581 408.99 197.229 407.5 193.746M11.2435 190.5C6.08116 193.667 -2.69475 202.9 3.50001 214.5C11.2435 229 72.5 245.5 107 249.5C141.5 253.5 260 263.5 314 249.5C368 235.5 388.265 229.235 407.5 210C410 207.5 413.5 203 407.5 193.746" stroke="white"/>
</g>
<g id="plateReflection">
<path d="M32.8531 198.403C20.8335 180.989 70.2217 177.572 96.4182 178.04L123 230C97.9592 226.723 44.8727 215.816 32.8531 198.403Z" fill="white" fill-opacity="0.2"/>
<path d="M388.5 198.403C382.1 217.525 312.5 227.435 278.5 230C266.167 229.167 250.9 225.2 288.5 216C335.5 204.5 349 201.5 362 192.5C372.4 185.3 337.333 177.5 318.5 174.5C344.5 174.5 394.9 179.281 388.5 198.403Z" fill="white" fill-opacity="0.2"/>
</g>
<g id="cup">
<path d="M61 27.709C61 -3.79102 332.5 -11.791 335 27.709C347.8 127.709 295.667 213.833 267.5 242C221.1 254 156.833 247 130.5 242C67.3 170.4 58 67.709 61 27.709Z" fill="#B8CCE4"/>
<path d="M61 27.709C61 -3.79102 332.5 -11.791 335 27.709M61 27.709C58 67.709 67.3 170.4 130.5 242C156.833 247 221.1 254 267.5 242C295.667 213.833 347.8 127.709 335 27.709M61 27.709C61 54.709 332.5 58.709 335 27.709" stroke="url(#paint0_linear_3_25)"/>
</g>
<path id="handle" d="M402 128.5C425.2 68.1 367.221 61.8333 336.887 66L336.535 44C367.368 38.6667 431 45.8 425 115C421.167 145.667 391.7 205.4 300.5 197L307 185L312.5 174.5C356.9 189.7 390.5 149.833 402 128.5Z" fill="#B8CCE4" stroke="white"/>
<g id="tea">
<path d="M135.5 227.5C111.396 205.767 88.8854 143.533 80.3093 114.07C80.0752 113.685 79.9702 113.328 80 113C70.8046 81 341.4 66.6343 319 121C317.5 131.5 287.833 196 268.5 227.5C222.1 241.1 160.5 233.167 135.5 227.5Z" fill="url(#paint1_linear_3_25)"/>
<path d="M80 113C88.3333 142 111.1 205.5 135.5 227.5C160.5 233.167 222.1 241.1 268.5 227.5C287.833 196 317.5 131.5 319 121M80 113C79 124 229.8 168.6 319 121M80 113C70.8046 81 341.4 66.6343 319 121" stroke="#AC5E5E"/>
</g>
<g id="cupReflection" opacity="0.5">
<path d="M133.572 70C123.891 72.6333 114.749 71.0972 111.387 70C107.623 107.744 132.227 191.06 145 228C131.555 170.506 131.779 98.7106 133.572 70Z" fill="#D9D9D9"/>
<path d="M343.5 61V51C370.5 51 422.1 62.6 412.5 109C419.7 67 369.5 59.5 343.5 61Z" fill="#D9D9D9"/>
<path d="M294.705 103.724C312.973 97.7287 321.18 78.7433 323 70C321.032 138.331 276.971 206.17 254.6 232.303C282.796 196.83 292.885 130.995 294.705 103.724Z" fill="#D9D9D9"/>
<path d="M313 186L309 193C333.5 193.167 387.5 184.1 407.5 146.5C372.7 188.9 330 190.5 313 186Z" fill="#D9D9D9"/>
<path d="M326 51.5C271.6 79.1 135.333 63 74 51.5C73.5 74.5 79.1 131.6 105.5 176C91 152 63.2 91.8 68 43H74C135.2 63.4 300 67.5 326 43V47.25V51.5Z" fill="#D9D9D9"/>
<path d="M321.5 21.5C283.5 3.1 177.667 6.5 129.5 10.5C212.5 6 259 12 292 16.5C318.4 20.1 323.167 28.1667 318 30C305.5 33.8333 286.5 40.3 310.5 35.5C334.5 30.7 327.833 24.1667 321.5 21.5Z" fill="#D9D9D9"/>
</g>
<path id="teaBag" d="M244.125 73.9707C238.807 74.8447 225.473 88.1942 222.061 90.0719C218.649 91.9495 210.226 122.452 209.24 127.969C208.452 132.382 199.862 157.056 195.665 168.841C196.71 168.316 197.523 169.64 198.489 169.933C201.058 170.715 268.903 193.879 269.597 194.64C270.291 195.401 281.167 159.739 281.686 152.913C282.205 146.086 294.863 113.508 294.876 110.686C294.889 107.863 283.87 86.3038 283.273 84.8334M244.125 73.9707C249.444 73.0968 282.675 83.3631 283.273 84.8334M244.125 73.9707C245.256 76.3192 247.439 81.1603 247.13 81.7369C246.82 82.3135 249.361 87.8045 250.67 90.4779M283.273 84.8334C282.108 83.7175 277.899 88.5315 276.981 89.4392C276.246 90.1654 269.732 93.2904 266.567 94.7622M222.875 90.7037C231.806 90.9321 249.869 91.2067 250.67 90.4779M250.67 90.4779C251.66 89.577 266.372 93.9375 266.567 94.7622M294.13 110.715C291.996 111.339 266.432 95.541 266.568 94.7887C266.57 94.7803 266.569 94.7714 266.567 94.7622M264 80.5C270.667 75.1667 285.8 61 293 47C302 29.5 334.5 7.5 339 16C343.5 24.5 344.5 69.5 352.5 93M342.336 96.9449C342.647 97.4906 342.798 99.4743 342.838 100.598C342.72 109.159 342.568 126.237 342.902 126.061C343.236 125.886 358.564 125.521 366.186 125.361L365.59 99.9491L365.082 95.7495C361.947 95.6638 362.428 94.3981 362.173 94.0677C361.968 93.8034 350.505 94.5138 344.798 94.9021C344.771 96.243 343.06 96.855 342.336 96.9449ZM342.336 96.9449C342.263 96.8171 342.181 96.7682 342.09 96.8276C341.923 96.9365 342.056 96.9796 342.336 96.9449ZM365.201 96.624L365.634 96.892L367.86 126.009C360.345 126.393 345.342 127.101 345.447 126.863C345.551 126.625 345.38 126.205 345.281 126.025" stroke="#797979" stroke-dasharray="2 2"/>
</g>
<defs>
<linearGradient id="paint0_linear_3_25" x1="198.749" y1="1" x2="198.749" y2="248.626" gradientUnits="userSpaceOnUse">
<stop stop-color="white"/>
<stop offset="1" stop-color="white" stop-opacity="0"/>
</linearGradient>
<linearGradient id="paint1_linear_3_25" x1="200.045" y1="84.5692" x2="200.045" y2="235.009" gradientUnits="userSpaceOnUse">
<stop stop-color="#6C5036"/>
<stop offset="1" stop-color="#6C5036" stop-opacity="0"/>
</linearGradient>
</defs>
</svg>
