<svg width="426" height="258" viewBox="0 0 426 258" fill="none" xmlns="http://www.w3.org/2000/svg">
<g id="teaCup">
<g id="plate">
<path d="M83 170L319.5 165C372.215 164.042 401.586 179.925 407.5 193.746C413.5 203 410 207.5 407.5 210C388.265 229.235 368 235.5 314 249.5C260 263.5 141.5 253.5 107 249.5C72.5 245.5 11.2435 229 3.50001 214.5C-2.69475 202.9 6.08116 193.667 11.2435 190.5C24.4805 175.547 62.0213 170.534 83 170Z" fill="#B8CCE4"/>
<path d="M11.2435 190.5C24.4805 175.547 62.0213 170.534 83 170L319.5 165C372.215 164.042 401.586 179.925 407.5 193.746M11.2435 190.5C7.96995 194.198 6.18278 198.504 6.50001 203.5C8.10001 228.7 121.833 244.667 178.5 249.5C247 249.5 388.7 240.3 407.5 203.5C408.991 200.581 408.99 197.229 407.5 193.746M11.2435 190.5C6.08116 193.667 -2.69475 202.9 3.50001 214.5C11.2435 229 72.5 245.5 107 249.5C141.5 253.5 260 263.5 314 249.5C368 235.5 388.265 229.235 407.5 210C410 207.5 413.5 203 407.5 193.746" stroke="white"/>
</g>
<g id="plateReflection">
<path d="M32.8531 198.403C20.8335 180.989 70.2217 177.572 96.4182 178.04L123 230C97.9592 226.723 44.8727 215.816 32.8531 198.403Z" fill="white" fill-opacity="0.2"/>
<path d="M388.5 198.403C382.1 217.525 312.5 227.435 278.5 230C266.167 229.167 250.9 225.2 288.5 216C335.5 204.5 349 201.5 362 192.5C372.4 185.3 337.333 177.5 318.5 174.5C344.5 174.5 394.9 179.281 388.5 198.403Z" fill="white" fill-opacity="0.2"/>
</g>
<g id="cup">
<path d="M61 27.709C61 -3.79102 332.5 -11.791 335 27.709C347.8 127.709 295.667 213.833 267.5 242C221.1 254 156.833 247 130.5 242C67.3 170.4 58 67.709 61 27.709Z" fill="#B8CCE4"/>
<path d="M61 27.709C61 -3.79102 332.5 -11.791 335 27.709M61 27.709C58 67.709 67.3 170.4 130.5 242C156.833 247 221.1 254 267.5 242C295.667 213.833 347.8 127.709 335 27.709M61 27.709C61 54.709 332.5 58.709 335 27.709" stroke="url(#paint0_linear_3_25)"/>
</g>
<path id="handle" d="M402 128.5C425.2 68.1 367.221 61.8333 336.887 66L336.535 44C367.368 38.6667 431 45.8 425 115C421.167 145.667 391.7 205.4 300.5 197L307 185L312.5 174.5C356.9 189.7 390.5 149.833 402 128.5Z" fill="#B8CCE4" stroke="white"/>
<g id="cupReflection" opacity="0.5">
<path d="M133.572 70C123.891 72.6333 114.749 71.0972 111.387 70C107.623 107.744 132.227 191.06 145 228C131.555 170.506 131.779 98.7106 133.572 70Z" fill="#D9D9D9"/>
<path d="M343.5 61V51C370.5 51 422.1 62.6 412.5 109C419.7 67 369.5 59.5 343.5 61Z" fill="#D9D9D9"/>
<path d="M294.705 103.724C312.973 97.7287 321.18 78.7433 323 70C321.032 138.331 276.971 206.17 254.6 232.303C282.796 196.83 292.885 130.995 294.705 103.724Z" fill="#D9D9D9"/>
<path d="M313 186L309 193C333.5 193.167 387.5 184.1 407.5 146.5C372.7 188.9 330 190.5 313 186Z" fill="#D9D9D9"/>
<path d="M326 51.5C271.6 79.1 135.333 63 74 51.5C73.5 74.5 79.1 131.6 105.5 176C91 152 63.2 91.8 68 43H74C135.2 63.4 300 67.5 326 43V47.25V51.5Z" fill="#D9D9D9"/>
<path d="M321.5 21.5C283.5 3.1 177.667 6.5 129.5 10.5C212.5 6 259 12 292 16.5C318.4 20.1 323.167 28.1667 318 30C305.5 33.8333 286.5 40.3 310.5 35.5C334.5 30.7 327.833 24.1667 321.5 21.5Z" fill="#D9D9D9"/>
</g>
</g>
<defs>
<linearGradient id="paint0_linear_3_25" x1="198.749" y1="1" x2="198.749" y2="248.626" gradientUnits="userSpaceOnUse">
<stop stop-color="white"/>
<stop offset="1" stop-color="white" stop-opacity="0"/>
</linearGradient>
</defs>
</svg>
